HIERARCHY
ROOT mixamorig:Hips
{
	OFFSET 0.000000 35.069874 -0.029489
	CHANNELS 6 Xposition Yposition Zposition Xrotation Yrotation Zrotation
	JOINT mixamorig:Spine
	{
		OFFSET 0.000000 6.876060 0.125662
		CHANNELS 3 Xrotation Yrotation Zrotation
		JOINT mixamorig:Spine1
		{
			OFFSET 0.000000 8.022060 0.146603
			CHANNELS 3 Xrotation Yrotation Zrotation
			JOINT mixamorig:Spine2
			{
				OFFSET 0.000000 9.168079 0.167547
				CHANNELS 3 Xrotation Yrotation Zrotation
				JOINT mixamorig:Neck
				{
					OFFSET 0.000000 10.314075 0.188489
					CHANNELS 3 Xrotation Yrotation Zrotation
					JOINT mixamorig:Head
					{
						OFFSET 0.000000 7.643753 -2.377445
						CHANNELS 3 Xrotation Yrotation Zrotation
						JOINT mixamorig:HeadTop_End
						{
							OFFSET 0.000000 43.788605 -13.619637
							CHANNELS 3 Xrotation Yrotation Zrotation
							End Site
							{
								OFFSET 0.000000 45.857788 0.000000
							}
						}
					}
				}
				JOINT mixamorig:LeftShoulder
				{
					OFFSET 4.392187 8.825001 0.174995
					CHANNELS 3 Xrotation Yrotation Zrotation
					JOINT mixamorig:LeftArm
					{
						OFFSET 8.774866 -2.970879 -0.026997
						CHANNELS 3 Xrotation Yrotation Zrotation
						JOINT mixamorig:LeftForeArm
						{
							OFFSET 8.450586 -0.797432 -0.648343
							CHANNELS 3 Xrotation Yrotation Zrotation
							JOINT mixamorig:LeftHand
							{
								OFFSET 18.458662 0.962311 0.193148
								CHANNELS 3 Xrotation Yrotation Zrotation
								JOINT mixamorig:LeftHandThumb1
								{
									OFFSET 2.379990 -1.333382 2.680594
									CHANNELS 3 Xrotation Yrotation Zrotation
									JOINT mixamorig:LeftHandThumb2
									{
										OFFSET 1.903984 -1.066746 2.144473
										CHANNELS 3 Xrotation Yrotation Zrotation
										JOINT mixamorig:LeftHandThumb3
										{
											OFFSET 0.966393 -1.489639 2.964555
											CHANNELS 3 Xrotation Yrotation Zrotation
											JOINT mixamorig:LeftHandThumb4
											{
												OFFSET 1.205181 -0.823021 1.625701
												CHANNELS 3 Xrotation Yrotation Zrotation
												End Site
												{
													OFFSET 1.050617 -0.818157 1.731923
												}
											}
										}
									}
								}
								JOINT mixamorig:LeftHandIndex1
								{
									OFFSET 7.830624 -0.787468 2.563931
									CHANNELS 3 Xrotation Yrotation Zrotation
									JOINT mixamorig:LeftHandIndex2
									{
										OFFSET 3.312897 -0.052605 1.515312
										CHANNELS 3 Xrotation Yrotation Zrotation
										JOINT mixamorig:LeftHandIndex3
										{
											OFFSET 3.460667 -0.207008 1.581951
											CHANNELS 3 Xrotation Yrotation Zrotation
											JOINT mixamorig:LeftHandIndex4
											{
												OFFSET 2.183182 0.110458 0.999585
												CHANNELS 3 Xrotation Yrotation Zrotation
												End Site
												{
													OFFSET 2.183868 0.110451 0.998074
												}
											}
										}
									}
								}
								JOINT mixamorig:LeftHandMiddle1
								{
									OFFSET 8.556145 -0.261200 0.258753
									CHANNELS 3 Xrotation Yrotation Zrotation
									JOINT mixamorig:LeftHandMiddle2
									{
										OFFSET 3.828903 -0.489014 -0.111505
										CHANNELS 3 Xrotation Yrotation Zrotation
										JOINT mixamorig:LeftHandMiddle3
										{
											OFFSET 3.696209 -0.166595 -0.107596
											CHANNELS 3 Xrotation Yrotation Zrotation
											JOINT mixamorig:LeftHandMiddle4
											{
												OFFSET 2.259281 0.534500 -0.065675
												CHANNELS 3 Xrotation Yrotation Zrotation
												End Site
												{
													OFFSET 2.259735 0.534134 -0.051267
												}
											}
										}
									}
								}
								JOINT mixamorig:LeftHandRing1
								{
									OFFSET 8.509293 -0.556679 -3.044941
									CHANNELS 3 Xrotation Yrotation Zrotation
									JOINT mixamorig:LeftHandRing2
									{
										OFFSET 2.995171 -0.303261 -0.843591
										CHANNELS 3 Xrotation Yrotation Zrotation
										JOINT mixamorig:LeftHandRing3
										{
											OFFSET 2.968273 -0.101997 -0.834287
											CHANNELS 3 Xrotation Yrotation Zrotation
											JOINT mixamorig:LeftHandRing4
											{
												OFFSET 1.521358 -0.461468 -0.418735
												CHANNELS 3 Xrotation Yrotation Zrotation
												End Site
												{
													OFFSET 1.516514 -0.460747 -0.436712
												}
											}
										}
									}
								}
							}
						}
					}
				}
				JOINT mixamorig:RightShoulder
				{
					OFFSET -4.392150 8.825024 0.141388
					CHANNELS 3 Xrotation Yrotation Zrotation
					JOINT mixamorig:RightArm
					{
						OFFSET -8.774886 -2.970947 -0.094209
						CHANNELS 3 Xrotation Yrotation Zrotation
						JOINT mixamorig:RightForeArm
						{
							OFFSET -8.450586 -0.797386 -0.330665
							CHANNELS 3 Xrotation Yrotation Zrotation
							JOINT mixamorig:RightHand
							{
								OFFSET -18.458664 0.962341 0.025780
								CHANNELS 3 Xrotation Yrotation Zrotation
								JOINT mixamorig:RightHandThumb1
								{
									OFFSET -2.390282 -1.240040 2.604684
									CHANNELS 3 Xrotation Yrotation Zrotation
									JOINT mixamorig:RightHandThumb2
									{
										OFFSET -1.912228 -0.992111 2.083740
										CHANNELS 3 Xrotation Yrotation Zrotation
										JOINT mixamorig:RightHandThumb3
										{
											OFFSET -0.876358 -1.555370 2.930126
											CHANNELS 3 Xrotation Yrotation Zrotation
											JOINT mixamorig:RightHandThumb4
											{
												OFFSET -1.227077 -0.755932 1.835223
												CHANNELS 3 Xrotation Yrotation Zrotation
												End Site
												{
													OFFSET -1.124962 -0.750702 1.901603
												}
											}
										}
									}
								}
								JOINT mixamorig:RightHandIndex1
								{
									OFFSET -8.716801 -0.633743 3.098187
									CHANNELS 3 Xrotation Yrotation Zrotation
									JOINT mixamorig:RightHandIndex2
									{
										OFFSET -3.319706 -0.240585 1.198087
										CHANNELS 3 Xrotation Yrotation Zrotation
										JOINT mixamorig:RightHandIndex3
										{
											OFFSET -3.153255 -0.154724 1.138827
											CHANNELS 3 Xrotation Yrotation Zrotation
											JOINT mixamorig:RightHandIndex4
											{
												OFFSET -1.818684 -0.003197 0.655154
												CHANNELS 3 Xrotation Yrotation Zrotation
												End Site
												{
													OFFSET -1.818668 -0.003197 0.655188
												}
											}
										}
									}
								}
								JOINT mixamorig:RightHandMiddle1
								{
									OFFSET -8.158691 -0.528496 0.196552
									CHANNELS 3 Xrotation Yrotation Zrotation
									JOINT mixamorig:RightHandMiddle2
									{
										OFFSET -3.890194 -0.261169 -0.136423
										CHANNELS 3 Xrotation Yrotation Zrotation
										JOINT mixamorig:RightHandMiddle3
										{
											OFFSET -3.903057 -0.179909 -0.137173
											CHANNELS 3 Xrotation Yrotation Zrotation
											JOINT mixamorig:RightHandMiddle4
											{
												OFFSET -2.366261 0.198380 -0.083987
												CHANNELS 3 Xrotation Yrotation Zrotation
												End Site
												{
													OFFSET -2.366409 0.198326 -0.079799
												}
											}
										}
									}
								}
								JOINT mixamorig:RightHandRing1
								{
									OFFSET -7.616104 -0.395126 -2.681268
									CHANNELS 3 Xrotation Yrotation Zrotation
									JOINT mixamorig:RightHandRing2
									{
										OFFSET -3.235790 -0.462120 -1.101476
										CHANNELS 3 Xrotation Yrotation Zrotation
										JOINT mixamorig:RightHandRing3
										{
											OFFSET -3.179264 -0.138618 -1.084847
											CHANNELS 3 Xrotation Yrotation Zrotation
											JOINT mixamorig:RightHandRing4
											{
												OFFSET -1.963291 -0.101624 -0.668250
												CHANNELS 3 Xrotation Yrotation Zrotation
												End Site
												{
													OFFSET -1.963745 -0.101669 -0.666919
												}
											}
										}
									}
								}
							}
						}
					}
				}
			}
		}
	}
	JOINT mixamorig:LeftUpLeg
	{
		OFFSET 10.205382 -3.823519 0.155145
		CHANNELS 3 Xrotation Yrotation Zrotation
		JOINT mixamorig:LeftLeg
		{
			OFFSET 0.283732 -12.998343 0.567794
			CHANNELS 3 Xrotation Yrotation Zrotation
			JOINT mixamorig:LeftFoot
			{
				OFFSET -1.058953 -10.688869 -2.184322
				CHANNELS 3 Xrotation Yrotation Zrotation
				JOINT mixamorig:LeftToeBase
				{
					OFFSET 0.108145 -7.191069 7.560211
					CHANNELS 3 Xrotation Yrotation Zrotation
					JOINT mixamorig:LeftToe_End
					{
						OFFSET 0.070226 0.081726 4.490266
						CHANNELS 3 Xrotation Yrotation Zrotation
						End Site
						{
							OFFSET 0.070226 0.081726 4.490267
						}
					}
				}
			}
		}
	}
	JOINT mixamorig:RightUpLeg
	{
		OFFSET -10.205383 -3.823513 0.005508
		CHANNELS 3 Xrotation Yrotation Zrotation
		JOINT mixamorig:RightLeg
		{
			OFFSET -0.283728 -12.998341 0.610627
			CHANNELS 3 Xrotation Yrotation Zrotation
			JOINT mixamorig:RightFoot
			{
				OFFSET 1.058956 -10.688892 -1.945833
				CHANNELS 3 Xrotation Yrotation Zrotation
				JOINT mixamorig:RightToeBase
				{
					OFFSET -0.108150 -7.191040 7.372945
					CHANNELS 3 Xrotation Yrotation Zrotation
					JOINT mixamorig:RightToe_End
					{
						OFFSET -0.070229 0.081738 4.479398
						CHANNELS 3 Xrotation Yrotation Zrotation
						End Site
						{
							OFFSET -0.070229 0.081738 4.479399
						}
					}
				}
			}
		}
	}
}
MOTION
Frames: 5
Frame Time: 0.016667
-37.370625 31.723230 -2.165172 -2.309179 49.429017 2.650650 3.261914 16.235998 0.946067 0.082433 2.219706 -1.399599 0.129989 2.211451 -1.410073 3.590910 -11.727620 4.388411 23.908384 -56.358903 38.319916 0.000001 -0.000000 -0.000001 -0.157681 2.519043 5.207977 49.298670 -33.146976 -61.525340 -7.088669 -51.438687 -11.698217 36.002491 0.396709 -12.593662 8.214600 18.317393 1.845432 1.111054 27.862106 11.541938 -2.289493 -13.278988 -6.237952 0.000000 0.000001 -0.000000 12.738411 23.814204 -28.155469 4.814173 1.566927 -10.106269 8.524215 0.826718 -18.259777 0.000000 0.000003 -0.000002 0.230688 0.819453 -20.581279 -0.002575 2.131978 -17.598980 -0.463412 2.359854 -29.137235 -0.000001 0.000000 0.000002 -6.436741 -10.984193 -25.665997 -3.596887 2.489517 -14.231873 0.935057 2.464823 2.034907 -0.000000 0.000001 -0.000004 1.721680 19.252309 1.682872 45.807295 51.356828 19.350851 -11.008749 63.275105 15.124844 20.907849 -8.400228 -9.816147 -2.496559 -27.387011 -5.792948 -8.554002 -44.579805 -11.028942 1.603830 14.152282 7.697693 0.000002 0.000000 0.000000 3.809422 -19.138771 7.269834 1.402794 -0.322503 3.796486 5.645034 -0.946119 15.151649 0.000001 0.000001 -0.000001 -0.330736 1.672220 10.847208 -0.130276 -0.741858 5.997040 -0.398533 -1.287846 15.485559 -0.000001 -0.000001 -0.000000 -4.924587 17.182111 10.569633 -2.805535 -0.859163 8.562248 -1.241842 -0.925529 3.847423 -0.000000 -0.000002 0.000001 -32.797336 -6.548025 14.815881 10.476163 -8.367758 -10.362008 18.222718 -17.246310 -11.562777 0.000030 -0.000003 0.000015 0.000000 0.000002 -0.000000 15.116428 -2.091561 -8.722682 23.234832 0.793851 -1.183224 -34.284261 -18.705431 6.388708 -0.000366 -0.000002 0.000486 -0.000000 -0.000004 0.000000 
-37.387215 31.694609 -2.128887 -2.079161 49.656305 2.460810 3.270492 15.523466 0.931314 0.345863 2.120920 -1.353277 0.389844 2.112556 -1.356211 2.338594 -11.604202 5.588481 19.142193 -55.026873 37.293615 0.000001 0.000000 0.000000 -0.181389 2.618163 5.426580 47.930180 -33.610644 -62.062063 -6.810452 -50.278272 -11.481257 35.890479 -1.286349 -12.380089 8.214592 18.317399 1.845454 1.111052 27.862107 11.541960 -2.289495 -13.278986 -6.237948 -0.000000 -0.000004 -0.000001 14.184127 23.578916 -31.487889 5.978007 1.734274 -12.512527 9.095728 0.838838 -19.462272 -0.000001 -0.000000 0.000000 0.401942 1.309912 -23.772378 0.084351 2.563311 -20.262840 -0.434774 2.589311 -30.472220 -0.000001 0.000000 0.000001 -6.951688 -10.011490 -29.173104 -4.136802 3.122562 -16.712503 0.650410 2.678141 0.791358 0.000001 0.000002 -0.000004 1.696744 19.356628 1.740962 46.682717 51.642425 17.217664 -10.911789 63.070896 15.038154 19.917677 -8.379619 -7.252876 -2.499876 -27.388102 -5.792303 -8.556101 -44.584053 -11.027912 1.603825 14.152283 7.697697 -0.000000 -0.000003 -0.000001 3.807895 -19.138443 7.265598 1.399599 -0.321548 3.787938 5.644265 -0.946047 15.149675 -0.000000 -0.000001 -0.000001 -0.330220 1.655457 10.954851 -0.130820 -0.748952 6.042498 -0.398229 -1.279870 15.435990 0.000001 0.000002 -0.000000 -4.951392 17.158748 10.671807 -2.816612 -0.868160 8.598993 -1.227686 -0.915787 3.802917 -0.000001 -0.000002 0.000001 -33.214964 -6.063624 14.932609 10.143684 -8.261182 -10.410977 18.695753 -18.462729 -11.652310 -0.000005 -0.000011 0.000049 0.000000 -0.000000 -0.000000 15.020844 -2.855020 -8.303266 23.365430 0.494522 -1.872658 -34.363126 -18.479840 6.911984 -0.000287 0.000008 0.000387 -0.000000 0.000001 -0.000000 
-37.405632 31.687031 -2.089756 -1.772696 49.648457 2.173486 3.185707 14.828809 0.933454 0.603874 2.024330 -1.272713 0.643045 2.016140 -1.268110 1.560463 -11.327293 6.579301 13.724747 -53.642434 35.161752 -0.000001 -0.000000 -0.000001 -0.238683 2.908279 5.567008 46.870189 -33.933264 -62.133036 -6.731449 -49.937736 -11.420289 34.394739 -2.800645 -12.092171 8.214622 18.317415 1.845430 1.111045 27.862116 11.541956 -2.289492 -13.278986 -6.237948 0.000004 0.000001 -0.000002 15.297395 23.342429 -34.076029 7.042579 1.843974 -14.705203 9.615999 0.839450 -20.556745 -0.000000 0.000003 0.000000 0.563729 1.707069 -26.408032 0.185878 2.970333 -22.803780 -0.401924 2.810945 -31.766035 -0.000001 0.000001 -0.000001 -7.350856 -9.136433 -32.225953 -4.659503 3.792241 -19.240320 0.359264 2.906536 -0.501390 0.000001 0.000004 -0.000001 1.685895 19.340604 1.704367 48.137247 52.053196 14.494519 -10.765579 62.757438 14.907714 18.624799 -8.779357 -4.686573 -2.499475 -27.387969 -5.792383 -8.555854 -44.583537 -11.028057 1.603827 14.152283 7.697693 -0.000000 -0.000001 -0.000000 3.807962 -19.138468 7.265790 1.399866 -0.321615 3.788663 5.644321 -0.946048 15.149749 0.000001 -0.000001 -0.000000 -0.329614 1.636814 11.074629 -0.131552 -0.758838 6.105810 -0.397950 -1.271973 15.386966 0.000001 0.000002 -0.000000 -4.982060 17.131928 10.788833 -2.832627 -0.881231 8.652255 -1.213962 -0.906366 3.759810 0.000001 -0.000001 0.000000 -33.480433 -5.607555 15.229276 9.968492 -8.166404 -10.594579 18.920468 -19.240571 -11.454197 -0.137582 -0.000004 0.000010 -0.000000 0.000001 -0.000000 14.699989 -3.741299 -8.075095 23.486193 0.283388 -2.456153 -34.229192 -17.882272 7.630638 -0.126323 0.000016 0.000009 -0.000000 -0.000002 0.000000 
-37.433372 31.708431 -2.052246 -1.401604 49.356190 1.819738 2.999906 14.276405 1.004045 0.813518 1.947523 -1.227373 0.849311 1.939505 -1.216408 1.429031 -10.920794 7.290668 8.160014 -52.317142 32.088608 -0.000000 0.000000 0.000001 -0.309237 3.276246 5.642407 46.210277 -34.038234 -61.756235 -6.828371 -50.354774 -11.495141 31.844401 -3.976422 -12.279109 8.214611 18.317403 1.845424 1.111064 27.862116 11.541912 -2.289495 -13.278988 -6.237952 0.000000 0.000000 0.000000 16.096753 23.141917 -35.949314 7.940488 1.904637 -16.550342 10.053396 0.832275 -21.477001 0.000001 0.000002 -0.000000 0.700795 2.007792 -28.440252 0.290389 3.325358 -25.046824 -0.368280 3.008583 -32.923977 0.000001 0.000001 -0.000002 -7.639571 -8.410500 -34.697583 -5.123045 4.441036 -21.608823 0.086500 3.130381 -1.733064 0.000001 0.000001 -0.000002 1.702643 19.386295 1.600854 50.036412 52.378603 11.511846 -10.571029 62.329335 14.734740 17.273769 -9.440116 -2.434446 -2.497086 -27.387184 -5.792841 -8.554320 -44.580477 -11.028785 1.603829 14.152281 7.697691 0.000004 0.000001 -0.000001 3.808923 -19.138668 7.268440 1.402029 -0.322272 3.794425 5.644773 -0.946105 15.150997 0.000000 0.000001 0.000000 -0.328930 1.617051 11.201538 -0.132433 -0.771040 6.184015 -0.397668 -1.263997 15.337461 -0.000001 0.000000 -0.000000 -5.015358 17.102633 10.916258 -2.852663 -0.897584 8.718855 -1.200052 -0.896819 3.716129 0.000000 -0.000002 0.000001 -33.434681 -5.395641 15.600891 9.876290 -8.175340 -10.746910 18.783777 -19.069106 -11.050501 -0.307581 -0.000009 0.000013 -0.000000 -0.000002 -0.000000 14.162161 -4.585409 -8.065151 23.531687 0.207515 -2.775241 -34.022699 -16.936719 8.125036 -0.263711 -0.000012 0.000006 -0.000000 -0.000001 0.000000 
-37.471546 31.754671 -2.017828 -0.995636 48.828247 1.458988 2.719948 13.919820 1.149916 0.959596 1.897853 -1.258189 0.994930 1.889909 -1.242448 1.974306 -10.426568 7.655196 2.952252 -51.082732 28.306416 -0.000001 -0.000000 0.000000 -0.377112 3.636048 5.681647 45.949763 -33.887314 -61.008377 -7.062482 -51.332037 -11.677645 28.789087 -4.620119 -13.144146 8.214597 18.317415 1.845427 1.111051 27.862100 11.541931 -2.289495 -13.278987 -6.237949 0.000004 0.000001 -0.000002 16.639913 22.990603 -37.230463 8.641569 1.931866 -17.989333 10.394266 0.821786 -22.194338 -0.000000 0.000003 -0.000000 0.806906 2.222901 -29.915747 0.386539 3.613429 -26.888370 -0.337299 3.172184 -33.886040 0.000001 0.000001 -0.000002 -7.837045 -7.851870 -36.567457 -5.504074 5.019956 -23.664611 -0.149884 3.332412 -2.817741 0.000002 0.000004 -0.000002 1.750067 19.595681 1.460162 52.111406 52.516741 8.633169 -10.323202 61.765592 14.515373 16.048100 -10.129906 -0.746674 -2.494506 -27.386333 -5.793351 -8.552683 -44.577158 -11.029564 1.603827 14.152282 7.697692 0.000003 -0.000001 -0.000003 3.810008 -19.138911 7.271471 1.404434 -0.322979 3.800835 5.645321 -0.946142 15.152396 0.000001 0.000001 -0.000000 -0.328191 1.597207 11.329050 -0.133436 -0.784993 6.273323 -0.397356 -1.255850 15.286821 0.000000 -0.000000 -0.000001 -5.049783 17.072242 11.048132 -2.875631 -0.916410 8.795373 -1.185472 -0.886839 3.670328 -0.000000 -0.000004 0.000001 -33.163256 -5.465083 16.001018 9.863721 -8.340234 -10.736579 18.312984 -17.962090 -10.989046 -0.306595 -0.000021 0.000020 0.000000 -0.000000 0.000000 13.433589 -5.183430 -8.276884 23.587780 0.362472 -2.769579 -33.796794 -15.953438 8.294542 -0.318292 -0.000011 0.000002 0.000000 -0.000001 0.000000 
